<svg width="48" height="48" viewBox="0 0 48 48" fill="none" xmlns="http://www.w3.org/2000/svg">
<g id="fluent-mdl2:work">
<path id="Vector" d="M45 10.3348V37H3V10.3348H16.125V7.66826C16.125 7.29328 16.1934 6.94608 16.3301 6.62665C16.4668 6.30722 16.6514 6.02946 16.8838 5.79336C17.1162 5.55726 17.3965 5.36283 17.7246 5.21006C18.0527 5.05729 18.3945 4.98785 18.75 5.00174H29.25C29.6191 5.00174 29.9609 5.07118 30.2754 5.21006C30.5898 5.34894 30.8633 5.53643 31.0957 5.77253C31.3281 6.00863 31.5195 6.29333 31.6699 6.62665C31.8203 6.95996 31.8887 7.30717 31.875 7.66826V10.3348H45ZM18.75 10.3348H29.25V7.66826H18.75V10.3348ZM5.625 13.0013V16.8553L18.75 23.5007V21.0009H29.25V23.5007L42.375 16.8553V13.0013H5.625ZM21.375 23.6674V26.3339H26.625V23.6674H21.375ZM42.375 34.3335V19.8134L29.25 26.5006V29.0004H18.75V26.5006L5.625 19.8134V34.3335H42.375Z" fill="#161412" stroke="#161412" stroke-width="2"/>
</g>
</svg>
