<svg width="72" height="49" viewBox="0 0 72 49" fill="none" xmlns="http://www.w3.org/2000/svg">
<path d="M40.9922 30C40.9922 24.8 41.7922 20.3333 43.3922 16.6C44.9922 12.7333 47.0589 9.6 49.5922 7.2C52.1255 4.66666 54.9922 2.86666 58.1922 1.79999C61.5255 0.599993 64.7922 -7.62939e-06 67.9922 -7.62939e-06V7C64.5255 7 61.2589 8.2 58.1922 10.6C55.2589 12.8667 53.5255 16 52.9922 20C53.3922 19.8667 53.8589 19.7333 54.3922 19.6C54.7922 19.4667 55.2589 19.3333 55.7922 19.2C56.4589 19.0667 57.1922 19 57.9922 19C61.9922 19 65.3255 20.5333 67.9922 23.6C70.6589 26.5333 71.9922 30 71.9922 34C71.9922 38 70.5922 41.5333 67.7922 44.6C65.1255 47.5333 61.5255 49 56.9922 49C51.9255 49 47.9922 47.1333 45.1922 43.4C42.3922 39.5333 40.9922 35.0667 40.9922 30ZM0.992188 30C0.992188 24.8 1.79219 20.3333 3.39219 16.6C4.99219 12.7333 7.05885 9.6 9.59219 7.2C12.1255 4.66666 14.9922 2.86666 18.1922 1.79999C21.5255 0.599993 24.7922 -7.62939e-06 27.9922 -7.62939e-06V7C24.5255 7 21.2589 8.2 18.1922 10.6C15.2589 12.8667 13.5255 16 12.9922 20C13.3922 19.8667 13.8589 19.7333 14.3922 19.6C14.7922 19.4667 15.2589 19.3333 15.7922 19.2C16.4589 19.0667 17.1922 19 17.9922 19C21.9922 19 25.3255 20.5333 27.9922 23.6C30.6589 26.5333 31.9922 30 31.9922 34C31.9922 38 30.5922 41.5333 27.7922 44.6C25.1255 47.5333 21.5255 49 16.9922 49C11.9255 49 7.99219 47.1333 5.19219 43.4C2.39219 39.5333 0.992188 35.0667 0.992188 30Z" fill="#92EDFA"/>
</svg>
